<?xml version="1.0" encoding="UTF-8" standalone="no"?>
<!-- Created with Inkscape (http://www.inkscape.org/) -->

<svg
   xmlns:dc="http://purl.org/dc/elements/1.1/"
   xmlns:cc="http://creativecommons.org/ns#"
   xmlns:rdf="http://www.w3.org/1999/02/22-rdf-syntax-ns#"
   xmlns:svg="http://www.w3.org/2000/svg"
   xmlns="http://www.w3.org/2000/svg"
   xmlns:sodipodi="http://sodipodi.sourceforge.net/DTD/sodipodi-0.dtd"
   xmlns:inkscape="http://www.inkscape.org/namespaces/inkscape"
   id="svg2"
   version="1.1"
   inkscape:version="0.91 r13725"
   xml:space="preserve"
   width="4072.7729"
   height="935.43091"
   viewBox="0 0 4072.7729 935.4309"
   sodipodi:docname="LCBC_wide_full.svg"><metadata
     id="metadata8"><rdf:RDF><cc:Work
         rdf:about=""><dc:format>image/svg+xml</dc:format><dc:type
           rdf:resource="http://purl.org/dc/dcmitype/StillImage" /><dc:title></dc:title></cc:Work></rdf:RDF></metadata><defs
     id="defs6"><clipPath
       clipPathUnits="userSpaceOnUse"
       id="clipPath16"><path
         d="m 0,1405.25 1024.198,0 L 1024.198,0 0,0 0,1405.25 Z"
         id="path18"
         inkscape:connector-curvature="0" /></clipPath></defs><sodipodi:namedview
     pagecolor="#ffffff"
     bordercolor="#666666"
     borderopacity="1"
     objecttolerance="10"
     gridtolerance="10"
     guidetolerance="10"
     inkscape:pageopacity="0"
     inkscape:pageshadow="2"
     inkscape:window-width="2232"
     inkscape:window-height="1278"
     id="namedview4"
     showgrid="false"
     inkscape:zoom="0.2942584"
     inkscape:cx="2172.932"
     inkscape:cy="81.27776"
     inkscape:window-x="1390"
     inkscape:window-y="356"
     inkscape:window-maximized="0"
     inkscape:current-layer="g10"
     fit-margin-top="50"
     fit-margin-left="50"
     fit-margin-right="50"
     fit-margin-bottom="50"
     showguides="true"
     inkscape:guide-bbox="true"><sodipodi:guide
       position="827.23478,458.36641"
       orientation="1,0"
       id="guide4564" /></sodipodi:namedview><g
     id="g10"
     inkscape:groupmode="layer"
     inkscape:label="LCBC_logos"
     transform="matrix(1.25,0,0,-1.25,426.77409,1160.8002)"><g
       id="g64"
       transform="translate(535.0762,1059.9102)" /><g
       transform="translate(-504.28227,1213.1391)"
       id="g4391" /><g
       transform="translate(-511.76377,1170.3964)"
       id="g4395" /><g
       transform="translate(-179.36776,952.14379)"
       id="g4399" /><g
       transform="translate(-163.05992,966.48806)"
       id="g4403" /><g
       id="g4206"
       transform="matrix(0.91094394,0,0,0.89510391,-476.06947,-235.67211)"><g
         style="fill:#ffffff;fill-opacity:1"
         id="g4514"
         transform="translate(-694.67895,540.46442)"><path
           sodipodi:nodetypes="cccscccccccccsccccccssccccccccccccc"
           inkscape:connector-curvature="0"
           id="path4516"
           d="m 1246.4488,714.81126 c -20.3123,0.23692 -60.2915,-5.38908 -79.0579,-8.28594 -47.9909,-18.348 -33.2619,-4.0507 -86.4828,-29.2875 -20.2661,-15.5643 -72.0866,-43.50135 -88.9531,-58.46719 -10.90984,-9.68053 -30.31264,-40.64313 -39.27344,-49.55 -0.22304,-0.21289 -0.44664,-0.42877 -0.67656,-0.65156 -0.2116,-0.19468 -0.42288,-0.38853 -0.62032,-0.55313 0.0162,-0.003 0.0307,-0.006 0.0469,-0.009 -9.1284,-8.9432 -22.99864,-24.78203 -29.44688,-32.13126 -12.65296,-14.466 -22.52576,-27.44312 -30.69376,-43.60312 -8.67056,-40.97463 -7.9132,-108.55324 19.81256,-135.01406 -0.12256,-0.26258 -0.24872,-0.52068 -0.36568,-0.78907 0.5092,-0.52103 1.03056,-1.03421 1.54536,-1.55156 6.64536,-51.50658 62.5356,-102.74804 139.25002,-120.92813 27.1887,-6.44334 53.6377,-18.32982 65.5406,-37.85782 C 1133.3256,164.52072 1102.8945,63.01384 1050.094,20.4944 1025.5724,2.5878405 993.92838,-5.933312 961.65354,-11.213473 1002.038,-29.03501 1084.2729,-48.47386 1109.1596,-3.24304 c -7.7917,-49.319967 102.7554,-18.687798 122.5704,-3.7999995 -20.54,1.5013071 -41.5857,4.43912 -58.4,20.7999995 -26.2355,44.1184 -0.4679,140.56272 26.9094,173.05464 27.3772,32.492 46.4432,21.24224 76.0672,35.86408 17.4191,8.59776 45.3326,28.63277 61.4343,50.09844 24.8103,16.55969 40.2311,37.32111 31.0516,58.7375 59.9438,19.00604 132.2993,13.12876 177.5235,43.71875 10.2032,9.47286 18.508,20.64896 23.9296,32.325 28.4873,52.28719 -19.1484,166.23437 -19.1484,166.23437 -7.898,10.531 -17.3384,20.19732 -28.2484,28.69532 -30.283,14.933 -45.1816,44.71837 -68.2016,58.25937 -22.571,13.087 -47.7008,23.16687 -74.0188,30.09687 -13.162,3.467 -26.6211,6.14144 -40.2031,7.99844 -22.61,3.58624 -58.793,8.75116 -82.7937,6.55782 -0.9944,3.01866 -2.0732,5.96786 -3.2641,8.82187 -2.353,0.37289 -5.017,0.55835 -7.9187,0.59219 z"
           style="fill:#ffffff;fill-opacity:1;fill-rule:nonzero;stroke:none" /></g><g
         id="g4417"><g
           id="g24"
           transform="translate(852.002,1104.4546)"><path
             d="m 0,0 c -7.898,10.531 -17.339,20.197 -28.249,28.695 -30.283,14.933 -45.181,44.719 -68.201,58.26 -22.571,13.087 -47.701,23.167 -74.019,30.097 -13.162,3.467 -26.621,6.141 -40.203,7.998 -23.756,3.768 -62.507,9.285 -86.356,6.172 17.50614,-44.213475 6.48987,-86.455719 1.411,-127.999 -8.473,-48.393 -15.41617,-94.378504 -20.29917,-141.3435 56.42416,-25.02983 89.05092,-62.05402 122.24133,-89.79717 60.68215,20.91333 139.210132,15.5174 185.69284,46.95867 10.2032605,9.47286 18.509412,20.64896 23.931,32.325 C 44.436248,-96.34681 0,0 0,0 Z"
             style="fill:#009fe3;fill-opacity:1;fill-rule:nonzero;stroke:none"
             id="path26"
             inkscape:connector-curvature="0"
             sodipodi:nodetypes="cccccccccccc" /></g><g
           style="stroke-width:16;stroke-miterlimit:4;stroke-dasharray:none"
           id="g32"
           transform="translate(288.6885,1128.5293)"><path
             d="m 16.971148,20.906487 c -11.4671185,-10.174962 -26.7846028,-37.417685 -35.02919,-44.29052 7.002,-1.234 3.953042,-11.550967 9.943042,-15.698967 44.006,-26.129 91.222008,-72.65602 99.844008,-125.03102 45.554282,7.08741 119.343662,15.2499 162.858822,-2.31366 7.52047,83.594114 42.14342,210.533985 11.99567,282.78232 -18.82395,2.9831 -57.52906,-5.98352 -78.9764,-9.29419 C 139.6161,88.712455 154.34556,103.01021 101.12468,77.773363 80.858561,62.209066 33.837558,35.872329 16.971148,20.906487 Z"
             style="fill:#66bfdd;fill-opacity:1;fill-rule:nonzero;stroke:none;stroke-width:16;stroke-miterlimit:4;stroke-dasharray:none"
             id="path34"
             inkscape:connector-curvature="0"
             sodipodi:nodetypes="scccccccs" /><path
             sodipodi:nodetypes="cc"
             inkscape:connector-curvature="0"
             id="path4415"
             style="fill:none;fill-opacity:1;fill-rule:nonzero;stroke:#ffffff;stroke-width:16;stroke-linecap:round;stroke-miterlimit:4;stroke-dasharray:none;stroke-opacity:1"
             d="m 257.35827,-162.73377 c -4.92318,89.249938 47.47081,201.589786 9.90175,282.17014" /></g><g
           style="stroke-width:16;stroke-miterlimit:4;stroke-dasharray:none"
           id="g28"
           transform="translate(281.207,1085.7866)"><path
             d="m 43.795868,-13.400942 c -7.830674,2.682418 -50.2673693,27.312643 -57.215369,28.817643 -8.849366,-8.1213946 -24.990964,-26.562564 -32.09783,-34.66237 C -58.170331,-33.711669 -68.043,-46.69 -76.211,-62.85 c -8.670945,-40.9762 -1.51339,-94.15721 26.215,-120.617 9.098,18.344 46.1508429,26.12901 68.635843,32.65401 21.492,7.632 23.172645,8.83782 44.606645,15.05882 11.161,3.48 43.777392,16.27643 55.058362,18.11719 3.27934,59.559834 -66.678309,101.553621 -74.508982,104.236038 z"
             style="fill:#c5da84;fill-opacity:1;fill-rule:nonzero;stroke:none;stroke-width:16;stroke-miterlimit:4;stroke-dasharray:none"
             id="path30"
             inkscape:connector-curvature="0"
             sodipodi:nodetypes="zcccccccz" /><path
             sodipodi:nodetypes="ccc"
             inkscape:connector-curvature="0"
             id="path4413"
             style="fill:none;fill-opacity:1;fill-rule:nonzero;stroke:#ffffff;stroke-width:16;stroke-linecap:round;stroke-miterlimit:4;stroke-dasharray:none;stroke-opacity:1"
             d="m -16.460414,21.927451 c 6.9479998,-1.505 52.425608,-32.645975 60.256282,-35.328393 C 124.6614,-69.64665 117.75177,-99.317283 118.30485,-117.63698" /></g><g
           id="g76"
           transform="translate(301.1919,988.5928)"><path
             d="m 0,0 c -2.571,-1.411 -3.39,-4.579 -5.232,-6.728 6.934,-3.962 20.723,-3.962 27.659,0 -1.063,3.176 -3.454,5.022 -5.232,7.476 C 14.042,-2.694 4.244,-1.842 0,0 m -11.212,-2.241 c 3.334,0.904 4.559,3.914 5.98,6.728 -3.851,3.374 -5.915,8.537 -5.233,16.446 -2.64,0.847 -4.659,2.315 -8.223,2.24 -2.275,-10.721 2.899,-19.186 7.476,-25.414 M 28.406,20.933 C 28.949,12.665 26.082,7.806 22.427,3.74 c 2.127,-1.362 2.87,-4.108 4.483,-5.981 6.902,3.75 12.269,16.375 8.221,26.163 -1.243,-1.995 -5.156,-1.32 -6.725,-2.989 M 8.971,8.973 C 21.425,9.034 18.973,29.068 6.728,26.163 -5.514,23.263 1.781,8.938 8.971,8.973 m 2.99,28.404 c 6.271,-1.704 11.564,-4.382 13.453,-10.466 3.457,0.533 6.466,1.511 8.972,2.99 -4.958,7.75 -11.067,14.35 -22.425,15.699 l 0,-8.223 z m -28.404,-8.223 c 2.777,-0.462 4.698,-1.781 7.472,-2.243 3.347,5.129 7.568,9.379 14.95,10.466 l 0,8.223 C -5.61,44.233 -12.397,38.065 -16.443,29.154 m 21.675,27.658 5.981,0 c -0.598,-2.592 1.113,-2.872 0.748,-5.233 3.63,-0.107 6.294,-1.18 8.967,-2.244 2.62,-0.125 2.356,2.633 3.739,3.74 2.681,0.19 2.739,-2.245 5.235,-2.242 0.491,-2.734 -1.62,-2.869 -1.496,-5.233 2.676,-2.308 5.389,-4.576 7.474,-7.476 1.873,0.621 2.936,2.049 5.233,2.244 0.334,-1.912 1.051,-3.437 2.242,-4.486 -0.616,-1.873 -2.617,-2.364 -3.738,-3.736 0.787,-3.204 2.544,-5.432 2.244,-9.72 1.086,-1.404 4.892,-0.09 5.981,-1.493 l 0,-5.234 c -2.36,0.366 -2.642,-1.346 -5.233,-0.748 -0.952,-3.284 -1.084,-7.389 -2.992,-9.718 1.028,-1.716 3.079,-2.402 4.488,-3.736 -1.158,-1.588 -2.153,-3.333 -2.992,-5.232 -1.527,0.714 -2.958,1.526 -4.483,2.242 -2.309,-2.676 -4.578,-5.391 -7.475,-7.477 -0.125,-2.364 1.988,-2.498 1.493,-5.23 -1.555,-0.439 -2.417,-1.572 -3.738,-2.244 -2.545,-0.053 -2.784,2.199 -3.736,3.739 -3.206,-1.278 -6.476,-2.495 -10.465,-2.992 0.434,-2.426 -0.511,-3.476 -0.748,-5.232 l -5.982,0 0,4.485 c -2.723,1.51 -7.141,1.328 -9.718,2.991 -2.187,-0.307 -2.424,-2.558 -3.736,-3.739 -2.494,-0.001 -2.55,2.431 -5.232,2.243 4.677,6.63 -3.922,7.694 -5.23,12.708 -1.163,-1.08 -3.491,-0.998 -4.487,-2.241 -1.982,0.756 -2.025,3.456 -3.739,4.482 0.334,2.157 3.219,1.77 3.739,3.74 -0.648,3.339 -2.261,5.712 -2.246,9.715 -0.96,1.031 -3.245,0.741 -5.23,0.749 l 0,5.979 c 1.755,0.24 2.804,1.181 5.23,0.75 -0.218,4.207 0.86,7.115 2.246,9.717 -0.334,2.156 -3.216,1.767 -3.739,3.738 -0.189,2.679 2.244,2.739 2.244,5.233 1.161,-1.082 3.487,-0.998 4.484,-2.244 2.728,2.007 3.649,5.819 7.475,6.727 0.197,2.692 -1.38,3.602 -1.497,5.981 1.122,0.875 3.06,0.93 3.74,2.242 2.478,-0.262 3.241,-2.238 4.485,-3.738 2.461,1.527 5.758,2.217 8.971,2.99 1.153,1.088 1.566,2.916 1.493,5.233"
             style="fill:#ffffff;fill-opacity:1;fill-rule:evenodd;stroke:none"
             id="path78"
             inkscape:connector-curvature="0" /></g><g
           id="g80"
           transform="translate(679.0752,1071.9258)"><path
             d="m 0,0 c 0,-14.293 -14.282,-25.877 -31.898,-25.877 -17.613,0 -31.894,11.584 -31.894,25.877 0,14.289 14.281,25.877 31.894,25.877 C -14.282,25.877 0,14.289 0,0"
             style="fill:#009fe3;fill-opacity:1;fill-rule:nonzero;stroke:none"
             id="path82"
             inkscape:connector-curvature="0" /></g><g
           id="g84"
           transform="translate(652.72211,1031.8473)"><path
             d="M 0,0 C 1.679,-0.834 2.397,-2.631 5.659,-1.884 12.215,3.426 -1.234,10.312 0,0 m 18.859,8.484 c 2.44,-1.38 3.505,-3.474 6.602,-1.881 1.082,1.112 1.064,3.333 0.943,5.655 -3.132,2.44 -8.042,0.36 -7.545,-3.774 m -31.115,1.889 c -10.508,10.515 -5.754,-13.998 0,0 m 39.598,16.972 c 1.061,-0.202 1.469,-1.046 1.886,-1.887 2.978,0.166 5.626,0.663 5.659,3.77 0.16,5.708 -9.501,4.633 -7.545,-1.883 M -27.34,26.4 c 0.727,-0.21 1.858,-0.025 1.887,-0.942 4.186,-0.417 5.129,2.411 4.709,6.598 -3.942,2.133 -8.042,0.283 -6.596,-5.656 m 15.084,4.715 c -1.772,-20.506 27.223,-23.018 31.115,-6.6 3.467,14.639 -7.641,21.631 -17.918,19.8 -8.444,-1.502 -12.588,-6.139 -13.197,-13.2 m 33.001,14.144 c 2.877,-0.682 3.437,0.965 5.659,0.942 2.078,11.195 -12.145,4.724 -5.659,-0.942 m -40.543,5.657 c -0.748,-3.261 1.048,-3.981 1.886,-5.657 3.846,-0.391 5.947,0.965 5.656,4.716 -1.335,3.322 -5.177,2.973 -7.542,0.941 m 20.739,2.83 c 0.738,-0.212 1.861,-0.028 1.89,-0.945 3.501,0.611 5.567,3.228 3.77,6.6 -3.947,3.641 -9.299,-1.713 -5.66,-5.655 m -2.827,24.513 9.431,0 0,-6.6 c 5.268,-1.182 6.479,1.692 7.543,4.714 3.952,0.499 5.265,-1.644 8.484,-1.888 0.458,-2.973 -1.696,-3.329 -0.943,-6.597 0.232,-1.024 1.877,-0.639 1.886,-1.887 4.628,-0.858 3.592,3.951 7.545,3.774 1.123,-2.335 3.226,-3.691 5.655,-4.716 -0.782,-2.359 -2.585,-3.703 -2.828,-6.599 0.333,-1.239 1.662,-1.486 1.885,-2.832 2.997,0.148 4.149,2.138 7.544,1.888 0.131,-3.326 2.698,-4.214 2.828,-7.541 -1.666,-0.849 -2.751,-2.278 -4.712,-2.829 0.381,-4.015 3.169,-5.63 8.483,-4.716 -0.505,-3.648 1.683,-4.606 0.941,-8.487 -3.02,-0.747 -6.756,-0.782 -5.654,-5.658 1.313,-1.825 4.877,-1.405 6.599,-2.827 -1.116,-2.339 -1.364,-5.55 -1.886,-8.485 l -5.655,0 c -0.88,-0.692 -1.432,-1.716 -1.886,-2.83 0.384,-2.756 3.224,-3.059 4.709,-4.711 C 47.465,6.281 45.158,4.818 44.316,1.887 42.112,2.198 40.421,3.021 38.656,3.772 36.734,3.494 36.81,1.219 34.887,0.942 c 1.553,-1.586 2.05,-4.238 3.769,-5.655 -1.206,-2.563 -4.83,-2.713 -5.654,-5.66 -3.312,-0.165 -3.102,3.187 -5.66,3.776 -1.398,-0.492 -2.378,-1.398 -3.77,-1.886 -0.46,-2.98 1.699,-3.334 0.943,-6.601 -1.722,-1.423 -5.286,-1.001 -6.599,-2.831 -2.849,0.61 -2.63,4.285 -4.716,5.66 -3.939,-0.147 -5.146,-3.021 -4.718,-7.542 l -8.482,0 c 0.462,2.973 -1.701,3.329 -0.944,6.6 -1.494,0.076 -3.593,-0.456 -3.77,0.942 -2.386,-0.76 -2.403,-3.882 -3.77,-5.66 -3.699,0.078 -5.879,1.665 -8.487,2.831 1.629,0.571 -0.07,4.47 1.886,4.711 -0.089,2.424 -3.682,1.352 -3.77,3.776 -1.974,-1.174 -3.542,-2.741 -4.715,-4.719 -3.023,0.747 -4.119,3.426 -6.598,4.719 0.419,2.406 1.318,4.334 2.828,5.655 -0.279,1.924 -2.552,1.849 -2.828,3.77 -2.675,-0.156 -3.932,-1.727 -6.6,-1.886 -0.841,2.935 -3.151,4.393 -3.775,7.542 1.419,1.412 3.969,1.691 4.717,3.774 -0.731,0.839 -1.014,2.128 -0.942,3.771 l -7.545,0 c 0.74,3.882 -1.447,4.841 -0.942,8.486 3.023,0.747 6.757,0.785 5.655,5.656 -0.796,2.032 -4.134,1.523 -5.655,2.832 -0.741,3.882 1.447,4.837 0.942,8.485 2.849,0.291 7.334,-1.05 7.545,1.883 0.105,3.566 -1.847,5.07 -4.717,5.659 0.841,2.931 3.151,4.393 3.772,7.542 3.449,0.619 3.617,-2.037 6.601,-1.887 1.779,0.107 0.656,3.118 2.827,2.831 -0.014,2.813 -2.451,3.206 -2.827,5.655 0.281,3.178 4.177,2.737 4.713,5.659 2.92,-0.225 3.665,-2.622 5.655,-3.771 4.056,0.246 4.545,5.095 2.832,8.487 2.65,1.121 5.423,2.121 8.482,2.827 -0.038,-2.869 1.993,-3.664 2.83,-5.657 0.842,0.731 2.131,1.014 3.768,0.943 2.111,0.405 0.386,4.647 0.946,6.6"
             style="fill:#ffffff;fill-opacity:1;fill-rule:evenodd;stroke:none"
             id="path86"
             inkscape:connector-curvature="0" /></g><g
           id="g88"
           transform="translate(613.60301,867.53401)"><path
             d="m -42.792553,-98.19342 c -29.624005,-14.62188 -43.889395,-1.771738 -71.266627,-34.2637 -27.37724,-32.49195 -59.54528,-143.33743 -33.30982,-187.45588 16.81428,-16.36087 39.45997,-19.11608 60,-16 -25.35587,-13.96432 -118.48559,-29.0904 -107,23 -27.65713,-52.61863 -95.92162,-35.51021 -140,-26 32.27492,5.28021 56.84308,4.63207 81.3647,22.53865 52.80048,42.51939 92.8319,158.42557 76.58,190.03679 -11.90287,19.528 -38.35168,31.413908 -65.54046,37.857219 -77.92729,18.467533 -134.36676,71.050199 -139.52818,123.371341 110.01694,-72.413122 339.489224,-180.89811 412.696778,-52.740019 9.17e-4,-30.299808 -48.370423,-67.69588 -73.996391,-80.344401 z"
             style="fill:#b2b2b2;fill-opacity:1;fill-rule:nonzero;stroke:none"
             id="path90"
             inkscape:connector-curvature="0"
             sodipodi:nodetypes="szccccccsccs" /></g><g
           id="g36"
           transform="translate(629.91085,881.87828)"><path
             d="m -53.32277,70.754677 c -59.284,29.024996 -146.79882,29.723333 -210.31882,6.503339 -13.232,-4.535 -50.3907,-5.434992 -62.3817,-12.024992 -10.71905,-6.559239 -22.69514,-10.25859 -32.883,-15.553 -16.192,-8.474 -33.187,-14.014 -40.162,-30.024001 70.34914,-71.99218 194.846,-108.733703 284.124,-117.223503 53.530908,-5.09046 180.035918,46.555333 144.953998,100.1085031 -6.025,9.2109999 -67.80448,59.5036539 -83.332478,68.2136539 z"
             style="fill:#94c11f;fill-opacity:1;fill-rule:nonzero;stroke:none"
             id="path38"
             inkscape:connector-curvature="0"
             sodipodi:nodetypes="cccccscc" /></g><g
           id="g56"
           transform="translate(518.36745,836.12866)"><path
             d="m 14.6092,25.044343 c 5.773,-0.75 10.296,5.832 5.811,11.857 -12.4660001,5.875 -15.1240001,-10.646 -5.811,-11.857 m -2.017,49.333 c 3.803,-0.287 7.606,-0.574 11.412,-0.861 0.822,-3.101 0.813,-6.921 0.828,-10.718 2.057,-2.296 5.961,-3.005 8.658,-4.751 3.823,1.17 5.768,4.518 9.456,5.842 4.106,-1.808 5.672,-5.797 8.353,-8.825 -5.873,-5.962 -9.229,-8.947 -4.613,-17.685 3.578,-0.483 6.205,-1.779 10.532,-1.614 1.473,-3.054 -0.24,-8.847 -0.168,-13.101 -3.475,0.2 -5.802,-0.935 -9.839,-0.079 -3.102,-1.417 -2.599,-7.028 -5.567,-8.595 1.557,-3.488 4.284,-5.9710003 5.843,-9.4590003 -2.276,-3.85299999 -5.491,-6.617 -9.644,-8.289 -2.173,2.703 -4.842,4.987 -7.657,7.135 -2.973,-1.27 -5.98,-2.49999999 -9.274,-3.39899999 -0.104,-4.60400001 -1.07,-8.21000001 -2.491,-11.28599971 -3.803,0.287 -7.604,0.573 -11.4090001,0.86 -0.999,2.9529997 -0.384,7.2939997 -0.832,10.71799971 -1.388,2.61399999 -5.96199999,2.49599999 -7.841,4.69099999 -4.169,-0.77 -6.699,-3.441 -9.4589999,-5.84399999 -3.999,1.89599999 -5.805,5.67699999 -8.35,8.82699999 4.818,6.8100003 8.593,9.0620003 3.799,17.7470003 -2.779,1.675 -8.509,0.813 -11.289,2.489 0.307,4.075 0.614,8.151 0.922,12.226 3.022,0.328 6.014,0.69 9.842,0.076 3.076,1.451 2.839,6.749 5.567,8.598 -1.045,3.928 -4.358,5.904 -5.844,9.457 1.895,4 5.677,5.807 8.8289999,8.351 3.728,-1.622 5.183,-5.196 8.47300001,-7.198 2.97099999,1.271 5.97999999,2.502 9.27300009,3.4 0.223,4.467 1.188,8.074 2.49,11.287"
             style="fill:#ffffff;fill-opacity:1;fill-rule:evenodd;stroke:none"
             id="path58"
             inkscape:connector-curvature="0" /></g><path
           id="path4385"
           style="fill:none;fill-rule:evenodd;stroke:#ffffff;stroke-width:9.60000038;stroke-linecap:round;stroke-linejoin:miter;stroke-miterlimit:4;stroke-dasharray:none;stroke-opacity:1"
           d="m 589.66708,900.09934 c 62.88399,-37.27898 29.80315,-56.66899 45.39822,-78.25259 m -89.55614,62.39734 c 42.67684,31.82698 74.50296,6.28176 100.87024,13.01316 m 25.57971,120.51975 c 44.762,-61.35129 86.96274,-95.94714 200.40047,-58.59852 m -171.37736,96.47612 c 86.44129,-64.14867 121.27954,39.8116 175.31272,-13.7133 m -203.35201,63.3969 c -36.00998,68.8259 121.80145,15.3504 57.06242,103.9848 M 639.00064,1017.2851 C 664.69819,906.78679 399.14909,1201.2912 515.03746,879.79418 463.5427,814.59604 364.95287,828.19048 424.52467,917.91777 m 192.8316,162.82473 c 0,0 -150.0462,87.6847 -192.8316,43.2887 -38.27491,-39.7158 41.53275,-185.53795 -7.37875,-211.03261 -41.88075,-21.82993 -88.54513,65.42501 -88.54513,65.42501"
           inkscape:connector-curvature="0"
           sodipodi:nodetypes="ccccccccccccccssc" /><g
           style="stroke-width:16;stroke-miterlimit:4;stroke-dasharray:none"
           transform="translate(257.0375,631.98427)"
           id="g4409"><path
             sodipodi:nodetypes="cccccc"
             inkscape:connector-curvature="0"
             id="path4411"
             style="fill:none;fill-opacity:1;fill-rule:nonzero;stroke:#ffffff;stroke-width:16;stroke-linecap:round;stroke-miterlimit:4;stroke-dasharray:none;stroke-opacity:1"
             d="m 413.52873,242.20061 c -6.025,9.211 -75.19711,66.67701 -90.72511,75.38701 -59.284,29.025 -146.79882,29.72334 -210.31882,6.50334 -13.231996,-4.535 -50.390696,-5.43499 -62.381696,-12.02499 -10.71905,-6.55924 -22.69514,-10.25859 -32.883,-15.553 -16.1919999,-8.474 -41.498298,-22.3253 -48.473298,-38.3353" /></g></g></g><g
       transform="translate(-1735.7238,693.92024)"
       id="g4542" /><g
       transform="translate(-1719.4159,708.26451)"
       id="g4546" /><g
       id="g4196"
       transform="matrix(1.2658021,0,0,1.2658021,-86.389906,-60.474911)"><text
         transform="scale(1,-1)"
         sodipodi:linespacing="125%"
         id="text4172"
         y="-221.81219"
         x="177.42355"
         style="font-style:normal;font-variant:normal;font-weight:normal;font-stretch:normal;font-size:250px;line-height:125%;font-family:Avenir;-inkscape-font-specification:Avenir;letter-spacing:0px;word-spacing:0px;fill:#c5da84;fill-opacity:1;stroke:none;stroke-width:1px;stroke-linecap:butt;stroke-linejoin:miter;stroke-opacity:1"
         xml:space="preserve"><tspan
           y="-221.81219"
           x="177.42355"
           id="tspan4174"
           sodipodi:role="line">L</tspan></text>
<text
         xml:space="preserve"
         style="font-style:normal;font-variant:normal;font-weight:normal;font-stretch:normal;font-size:250px;line-height:125%;font-family:Avenir;-inkscape-font-specification:Avenir;letter-spacing:0px;word-spacing:0px;fill:#94c11f;fill-opacity:0.94117647;stroke:none;stroke-width:1px;stroke-linecap:butt;stroke-linejoin:miter;stroke-opacity:1"
         x="311.17892"
         y="-226.31219"
         id="text4176"
         sodipodi:linespacing="125%"
         transform="scale(1,-1)"><tspan
           sodipodi:role="line"
           id="tspan4178"
           x="311.17892"
           y="-226.31219">C</tspan></text>
<text
         transform="scale(1,-1)"
         sodipodi:linespacing="125%"
         id="text4180"
         y="-226.31219"
         x="629.94067"
         style="font-style:normal;font-variant:normal;font-weight:normal;font-stretch:normal;font-size:250px;line-height:125%;font-family:Avenir;-inkscape-font-specification:Avenir;letter-spacing:0px;word-spacing:0px;fill:#66bfdd;fill-opacity:1;stroke:none;stroke-width:1px;stroke-linecap:butt;stroke-linejoin:miter;stroke-opacity:1"
         xml:space="preserve"><tspan
           y="-226.31219"
           x="629.94067"
           id="tspan4182"
           sodipodi:role="line">C</tspan></text>
<text
         xml:space="preserve"
         style="font-style:normal;font-variant:normal;font-weight:normal;font-stretch:normal;font-size:250px;line-height:125%;font-family:Avenir;-inkscape-font-specification:Avenir;letter-spacing:0px;word-spacing:0px;fill:#009fe3;fill-opacity:1;stroke:none;stroke-width:1px;stroke-linecap:butt;stroke-linejoin:miter;stroke-opacity:1"
         x="478.1843"
         y="-221.81219"
         id="text4184"
         sodipodi:linespacing="125%"
         transform="scale(1,-1)"><tspan
           sodipodi:role="line"
           id="tspan4186"
           x="478.1843"
           y="-221.81219">B</tspan></text>
</g><g
       id="g4525"
       transform="matrix(1.8151111,0,0,1.8151111,-1496.5688,-361.54952)"><text
         transform="scale(1,-1)"
         sodipodi:linespacing="125%"
         id="text4188"
         y="-398.76596"
         x="1362.9662"
         style="font-style:normal;font-variant:normal;font-weight:500;font-stretch:normal;font-size:70.93770599px;line-height:125%;font-family:Avenir;-inkscape-font-specification:'Avenir Medium';letter-spacing:0px;word-spacing:0px;fill:#626262;fill-opacity:1;stroke:none;stroke-width:1px;stroke-linecap:butt;stroke-linejoin:miter;stroke-opacity:1"
         xml:space="preserve"><tspan
           y="-398.76596"
           x="1362.9662"
           id="tspan4190"
           sodipodi:role="line"
           style="letter-spacing:24px">LIFESPAN CHANGES</tspan></text>
<text
         xml:space="preserve"
         style="font-style:oblique;font-variant:normal;font-weight:300;font-stretch:normal;font-size:57.36001968px;line-height:125%;font-family:Avenir;-inkscape-font-specification:'Avenir Light Oblique';letter-spacing:27.16885948px;word-spacing:0px;fill:#626262;fill-opacity:1;stroke:none;stroke-width:1px;stroke-linecap:butt;stroke-linejoin:miter;stroke-opacity:1"
         x="1364.2592"
         y="-334.32251"
         id="text4192"
         sodipodi:linespacing="125%"
         transform="scale(1,-1)"><tspan
           sodipodi:role="line"
           id="tspan4194"
           x="1364.2592"
           y="-334.32251"
           style="letter-spacing:23.28759384px">in brain and cognition</tspan></text>
</g></g></svg>